<?xml version="1.0" standalone="no"?>
<!DOCTYPE svg PUBLIC "-//W3C//DTD SVG 20010904//EN"
 "http://www.w3.org/TR/2001/REC-SVG-20010904/DTD/svg10.dtd">
<svg version="1.0" xmlns="http://www.w3.org/2000/svg"
 width="850.000000pt" height="850.000000pt" viewBox="0 0 850.000000 850.000000"
 preserveAspectRatio="xMidYMid meet">
<metadata>
Created by potrace 1.11, written by Peter Selinger 2001-2013
</metadata>
<g transform="translate(0.000000,850.000000) scale(0.100000,-0.100000)"
fill="#000000" stroke="none">
<path d="M4672 8472 c-41 -38 -55 -90 -49 -175 3 -40 8 -81 10 -92 3 -11 12
-50 21 -87 46 -196 172 -513 356 -893 177 -365 232 -491 283 -650 151 -464
113 -825 -121 -1154 -50 -70 -195 -221 -277 -288 -170 -138 -443 -284 -795
-423 -113 -44 -214 -85 -225 -90 -11 -5 -60 -24 -110 -44 -417 -161 -771 -378
-1084 -664 -73 -67 -113 -107 -252 -252 -92 -97 -314 -402 -392 -540 -114
-199 -250 -503 -271 -605 -29 -135 -33 -159 -43 -250 -15 -132 -8 -531 12
-665 2 -14 6 -50 10 -80 3 -30 11 -78 16 -106 5 -28 11 -66 14 -85 2 -19 8
-59 14 -89 7 -30 14 -68 17 -85 3 -16 18 -85 34 -151 16 -67 32 -151 34 -186
6 -70 20 -118 39 -131 18 -12 -73 1 -134 20 -33 10 -92 17 -149 17 -90 1 -100
-1 -163 -33 -126 -64 -288 -250 -331 -380 -57 -174 -5 -232 219 -245 163 -10
260 -17 285 -21 14 -3 140 -7 280 -10 342 -7 501 -13 585 -22 107 -11 285 -8
331 5 62 18 107 52 131 101 l22 43 25 -25 c27 -27 48 -89 39 -114 -5 -13 39
-14 403 -9 225 4 456 9 514 11 58 2 186 6 285 10 99 3 223 8 275 10 52 3 145
7 205 10 140 6 281 15 370 22 39 3 189 6 335 7 146 1 271 5 278 9 6 5 12 15
12 22 0 22 -68 183 -95 226 -13 20 -44 79 -69 131 -69 142 -134 199 -271 236
-89 23 -236 22 -349 -3 -12 -3 -32 -7 -46 -10 -14 -2 -88 -21 -165 -40 -153
-39 -235 -50 -338 -48 -92 2 -258 54 -221 69 29 12 245 161 304 209 247 203
422 431 576 750 38 78 72 134 99 161 65 65 126 66 158 3 14 -28 53 -176 73
-278 3 -13 12 -51 20 -85 8 -34 17 -71 20 -84 2 -12 14 -62 25 -110 23 -94 26
-110 34 -144 3 -13 12 -52 21 -87 9 -36 17 -72 19 -80 2 -9 17 -74 35 -146 17
-71 40 -168 51 -215 66 -282 138 -407 272 -472 161 -80 563 -97 752 -33 54 18
149 68 174 92 121 111 165 188 176 308 5 49 -74 83 -212 90 -247 14 -293 62
-435 460 -71 198 -156 486 -182 617 -3 13 -14 66 -25 118 -11 52 -22 111 -25
130 -3 19 -8 49 -11 65 -18 108 -18 105 -40 290 l-13 110 59 60 c68 69 115
133 166 223 36 64 106 222 98 222 -2 0 3 16 11 35 27 66 82 316 99 450 2 22 7
56 10 75 2 19 7 58 10 85 3 28 7 64 9 80 3 26 7 66 21 215 2 19 6 73 10 120 3
47 8 110 10 140 6 69 15 337 20 535 3 156 9 209 31 260 13 31 61 80 104 107
28 17 115 43 175 52 99 14 124 18 185 32 139 32 224 93 276 200 83 171 57 418
-64 599 -42 63 -112 156 -151 201 -101 113 -222 261 -271 329 -48 66 -60 77
-108 100 -27 13 -194 52 -339 79 -261 48 -330 97 -348 251 -4 33 -9 69 -11 80
-2 11 -11 81 -19 155 -9 74 -18 151 -20 170 -6 43 -13 106 -20 163 -13 109
-17 144 -20 167 -3 14 -7 48 -10 75 -3 28 -8 57 -10 65 -2 8 -7 35 -10 60 -4
24 -9 48 -12 53 -3 4 -7 23 -10 40 -7 52 -60 202 -94 269 -69 138 -156 240
-265 313 -157 105 -334 124 -373 39 -14 -31 -14 -81 -1 -89 20 -12 9 -24 -17
-19 -30 6 -139 59 -202 98 -67 43 -131 63 -198 64 -54 0 -66 -3 -91 -26z"/>
</g>
</svg>
